<svg xmlns="http://www.w3.org/2000/svg" viewBox="0 0 14.759 27.298"><defs><style>.a{fill:#ffd72d;}</style></defs><path class="a" d="M36.28.006,32.74,0c-3.977,0-6.547,2.637-6.547,6.718v3.1H22.634a.557.557,0,0,0-.557.557V14.86a.557.557,0,0,0,.557.557h3.559V26.742a.556.556,0,0,0,.557.557h4.644a.557.557,0,0,0,.557-.557V15.417h4.162a.556.556,0,0,0,.557-.557l0-4.488a.557.557,0,0,0-.557-.557H31.95V7.19c0-1.262.3-1.9,1.945-1.9h2.385a.557.557,0,0,0,.556-.557V.562A.557.557,0,0,0,36.28.006Z" transform="translate(-22.077 0)"/></svg>