<svg xmlns="http://www.w3.org/2000/svg" viewBox="0 0 27.298 27.298"><defs><style>.a{fill:#ffd72d;}.b{fill:#fff;}</style></defs><g transform="translate(0 0)"><g transform="translate(0 0)"><path class="a" d="M18.767,0H8.531A8.532,8.532,0,0,0,0,8.531V18.767A8.532,8.532,0,0,0,8.531,27.3H18.767A8.532,8.532,0,0,0,27.3,18.767V8.531A8.532,8.532,0,0,0,18.767,0Zm5.971,18.767a5.978,5.978,0,0,1-5.971,5.971H8.531a5.978,5.978,0,0,1-5.971-5.971V8.531A5.978,5.978,0,0,1,8.531,2.559H18.767a5.978,5.978,0,0,1,5.971,5.971Z" transform="translate(0 0)"/></g><g transform="translate(6.825 6.825)"><path class="b" d="M134.825,128a6.825,6.825,0,1,0,6.825,6.825A6.825,6.825,0,0,0,134.825,128Zm0,11.09a4.265,4.265,0,1,1,4.265-4.265A4.271,4.271,0,0,1,134.825,139.09Z" transform="translate(-128 -128)"/></g><g transform="translate(20.076 5.403)"><circle class="b" cx="0.909" cy="0.909" r="0.909"/></g></g></svg>