<svg width="101" height="104" viewBox="0 0 101 104" fill="none" xmlns="http://www.w3.org/2000/svg">
<g clip-path="url(#clip0)">
<path d="M8.10199 62.6001H21.072V70.7001H8.10199V62.6001Z" fill="#343A40"/>
<path d="M51.845 7.29712H62.785V18.2371H51.845V7.29712Z" fill="#FF5A45"/>
<path d="M27.669 7.29712H38.61V18.2371H27.67L27.669 7.29712Z" fill="#222222"/>
<path d="M92.768 83.981V58.766H96.82V59.966C96.82 60.2321 96.8724 60.4955 96.9742 60.7413C97.076 60.9871 97.2253 61.2105 97.4134 61.3986C97.6015 61.5867 97.8249 61.736 98.0707 61.8378C98.3165 61.9396 98.5799 61.992 98.846 61.992C99.1121 61.992 99.3755 61.9396 99.6213 61.8378C99.8671 61.736 100.09 61.5867 100.279 61.3986C100.467 61.2105 100.616 60.9871 100.718 60.7413C100.82 60.4955 100.872 60.2321 100.872 59.966V29.393C100.872 29.1269 100.82 28.8635 100.718 28.6177C100.616 28.3719 100.467 28.1485 100.279 27.9604C100.09 27.7723 99.8671 27.623 99.6213 27.5212C99.3755 27.4194 99.1121 27.367 98.846 27.367C98.5799 27.367 98.3165 27.4194 98.0707 27.5212C97.8249 27.623 97.6015 27.7723 97.4134 27.9604C97.2253 28.1485 97.076 28.3719 96.9742 28.6177C96.8724 28.8635 96.82 29.1269 96.82 29.393V32.347H92.647C92.1281 27.9056 89.9974 23.8091 86.659 20.8342C83.3206 17.8592 79.0066 16.2128 74.535 16.207H64.811V7.293C64.8107 6.75575 64.5972 6.24059 64.2173 5.86069C63.8374 5.4808 63.3222 5.26727 62.785 5.267H59.341V2.026C59.341 1.48867 59.1275 0.97335 58.7476 0.593402C58.3676 0.213453 57.8523 0 57.315 0C56.7777 0 56.2623 0.213453 55.8824 0.593402C55.5025 0.97335 55.289 1.48867 55.289 2.026V5.267H51.845C51.3077 5.267 50.7924 5.48045 50.4124 5.8604C50.0325 6.24035 49.819 6.75567 49.819 7.293V16.207H40.635V7.293C40.635 6.75567 40.4215 6.24035 40.0416 5.8604C39.6617 5.48045 39.1463 5.267 38.609 5.267H35.165V2.026C35.165 1.48867 34.9515 0.97335 34.5716 0.593402C34.1916 0.213453 33.6763 0 33.139 0C32.6017 0 32.0864 0.213453 31.7064 0.593402C31.3265 0.97335 31.113 1.48867 31.113 2.026V5.267H27.669C27.1318 5.26727 26.6168 5.48083 26.237 5.86075C25.8573 6.24067 25.644 6.75584 25.644 7.293V16.207H18.013C17.988 16.207 17.964 16.207 17.939 16.207C14.7914 16.255 11.7106 17.1222 9 18.723C8.91036 18.768 8.82413 18.8194 8.742 18.877C6.07339 20.5046 3.86784 22.7907 2.33701 25.516C0.806182 28.2412 0.00143766 31.3142 0 34.44V62.6C-3.24354e-08 62.866 0.0524113 63.1294 0.15424 63.3752C0.256068 63.6209 0.405318 63.8442 0.593462 64.0322C0.781607 64.2203 1.00496 64.3694 1.25076 64.4711C1.49656 64.5729 1.75999 64.6251 2.026 64.625H6.08V70.7C6.07947 70.9663 6.13146 71.2301 6.23298 71.4763C6.33449 71.7225 6.48355 71.9463 6.67163 72.1348C6.85971 72.3234 7.08311 72.473 7.32907 72.5751C7.57502 72.6772 7.83869 72.7299 8.105 72.73H12.563V77.795C12.563 78.3323 12.7765 78.8477 13.1564 79.2276C13.5364 79.6075 14.0517 79.821 14.589 79.821C15.1263 79.821 15.6417 79.6075 16.0216 79.2276C16.4015 78.8477 16.615 78.3323 16.615 77.795V72.73H21.072C21.3386 72.7303 21.6026 72.6779 21.8489 72.576C22.0952 72.474 22.3189 72.3245 22.5073 72.1359C22.6957 71.9473 22.845 71.7234 22.9467 71.477C23.0484 71.2306 23.1005 70.9666 23.1 70.7V64.626H25.916C26.4529 64.6255 26.9676 64.4117 27.347 64.0318C27.7263 63.6519 27.9393 63.1369 27.939 62.6V56.74C27.9419 53.1367 29.3747 49.6818 31.9227 47.134C34.4707 44.5862 37.9257 43.1536 41.529 43.151H49.4C53.0028 43.1544 56.457 44.5873 59.0044 47.135C61.5517 49.6828 62.9841 53.1372 62.987 56.74V83.48H51.845C51.3077 83.48 50.7924 83.6935 50.4124 84.0734C50.0325 84.4534 49.819 84.9687 49.819 85.506C49.819 86.0433 50.0325 86.5586 50.4124 86.9386C50.7924 87.3185 51.3077 87.532 51.845 87.532H89.645C91.2302 87.5336 92.7501 88.164 93.871 89.285C94.992 90.4059 95.6224 91.9258 95.624 93.511V99.688H4.052V93.511C4.05385 91.9257 4.68451 90.4058 5.80561 89.2849C6.9267 88.164 8.44667 87.5336 10.032 87.532H34.432C34.9693 87.532 35.4846 87.3185 35.8646 86.9386C36.2445 86.5586 36.458 86.0433 36.458 85.506C36.458 84.9687 36.2445 84.4534 35.8646 84.0734C35.4846 83.6935 34.9693 83.48 34.432 83.48H10.032C7.37233 83.4827 4.82234 84.5403 2.94158 86.4209C1.06082 88.3015 0.00291208 90.8513 0 93.511V101.711C0 102.248 0.213453 102.764 0.593402 103.144C0.97335 103.524 1.48867 103.737 2.026 103.737H97.648C98.1853 103.737 98.7006 103.524 99.0806 103.144C99.4605 102.764 99.674 102.248 99.674 101.711V93.511C99.6712 91.3981 99.0023 89.3399 97.7625 87.629C96.5227 85.918 94.775 84.6416 92.768 83.981ZM96.82 54.715H92.768V36.4H96.82V54.715ZM53.87 9.319H60.758V16.207H53.87V9.319ZM29.695 9.319H36.583V16.207H29.7L29.695 9.319ZM11.935 21.739C13.2119 21.1025 14.5782 20.6642 15.987 20.439V40C15.987 40.5373 15.7735 41.0526 15.3936 41.4326C15.0136 41.8125 14.4983 42.026 13.961 42.026C13.4237 42.026 12.9084 41.8125 12.5284 41.4326C12.1485 41.0526 11.935 40.5373 11.935 40V21.739ZM19.046 68.678H10.132V64.626H19.046V68.678ZM67.04 83.478V56.74C67.0344 52.0633 65.1742 47.5797 61.8672 44.2728C58.5603 40.9658 54.0767 39.1056 49.4 39.1H41.53C36.8528 39.1048 32.3684 40.9647 29.0608 44.2717C25.7533 47.5787 23.8926 52.0628 23.887 56.74V60.574H4.052V34.44C4.05009 30.8433 5.42022 27.3813 7.883 24.76V40C7.87268 40.8047 8.02225 41.6034 8.32304 42.3498C8.62384 43.0962 9.06986 43.7754 9.63523 44.3481C10.2006 44.9208 10.8741 45.3755 11.6166 45.6858C12.359 45.9962 13.1558 46.156 13.9605 46.156C14.7652 46.156 15.562 45.9962 16.3044 45.6858C17.0469 45.3755 17.7204 44.9208 18.2858 44.3481C18.8511 43.7754 19.2972 43.0962 19.598 42.3498C19.8987 41.6034 20.0483 40.8047 20.038 40V20.259H74.538C78.297 20.2648 81.9003 21.7608 84.558 24.4191C87.2157 27.0774 88.711 30.681 88.716 34.44V83.48L67.04 83.478Z" fill="white"/>
<path d="M45.183 86.9389C45.5141 86.6074 45.7199 86.1714 45.7656 85.7052C45.8112 85.239 45.6938 84.7713 45.4333 84.3819C45.1728 83.9925 44.7854 83.7055 44.337 83.5698C43.8886 83.434 43.4071 83.458 42.9743 83.6374C42.5416 83.8169 42.1845 84.1409 41.9639 84.5542C41.7432 84.9674 41.6727 85.4444 41.7643 85.9038C41.8559 86.3633 42.104 86.7767 42.4662 87.0738C42.8285 87.3708 43.2825 87.5331 43.751 87.5329C44.2879 87.5308 44.8023 87.3174 45.183 86.9389Z" fill="white"/>
<path d="M100.275 65.537C99.9428 65.2086 99.5071 65.0053 99.0419 64.9619C98.5768 64.9184 98.111 65.0375 97.7237 65.2988C97.3364 65.5601 97.0516 65.9474 96.9178 66.395C96.7839 66.8426 96.8092 67.3227 96.9894 67.7538C97.1697 68.1848 97.4936 68.54 97.9062 68.7591C98.3188 68.9782 98.7946 69.0476 99.2526 68.9554C99.7106 68.8633 100.123 68.6153 100.418 68.2537C100.714 67.8921 100.875 67.4392 100.875 66.972C100.873 66.4331 100.657 65.917 100.275 65.537Z" fill="white"/>
<path d="M75.891 26.5391C74.3681 26.5391 72.8794 26.9907 71.6131 27.8367C70.3468 28.6828 69.3599 29.8854 68.7771 31.2924C68.1943 32.6994 68.0418 34.2476 68.3389 35.7413C68.636 37.2349 69.3694 38.6069 70.4463 39.6838C71.5231 40.7607 72.8951 41.494 74.3888 41.7911C75.8825 42.0882 77.4307 41.9357 78.8377 41.3529C80.2446 40.7701 81.4472 39.7832 82.2933 38.517C83.1394 37.2507 83.591 35.762 83.591 34.2391C83.5894 32.1974 82.7776 30.2398 81.334 28.7961C79.8903 27.3524 77.9327 26.5407 75.891 26.5391ZM75.891 37.8841C75.1697 37.8841 74.4646 37.6702 73.8648 37.2694C73.2651 36.8687 72.7976 36.2991 72.5216 35.6327C72.2456 34.9663 72.1733 34.233 72.3141 33.5256C72.4548 32.8181 72.8021 32.1683 73.3122 31.6582C73.8222 31.1482 74.4721 30.8009 75.1795 30.6601C75.887 30.5194 76.6202 30.5916 77.2866 30.8677C77.953 31.1437 78.5226 31.6112 78.9233 32.2109C79.3241 32.8107 79.538 33.5158 79.538 34.2371C79.5369 35.204 79.1524 36.131 78.4686 36.8147C77.7849 37.4984 76.8579 37.883 75.891 37.8841Z" fill="#FDD72D"/>
<path d="M81.564 54.7151H75.892C75.3547 54.7151 74.8394 54.9286 74.4594 55.3085C74.0795 55.6885 73.866 56.2038 73.866 56.7411C73.866 57.2784 74.0795 57.7937 74.4594 58.1737C74.8394 58.5536 75.3547 58.7671 75.892 58.7671H81.564C82.1014 58.7671 82.6167 58.5536 82.9966 58.1737C83.3766 57.7937 83.59 57.2784 83.59 56.7411C83.59 56.2038 83.3766 55.6885 82.9966 55.3085C82.6167 54.9286 82.1014 54.7151 81.564 54.7151Z" fill="white"/>
<path d="M81.564 63.4109H75.892C75.3547 63.4109 74.8394 63.6244 74.4594 64.0043C74.0795 64.3843 73.866 64.8996 73.866 65.4369C73.866 65.9742 74.0795 66.4895 74.4594 66.8695C74.8394 67.2494 75.3547 67.4629 75.892 67.4629H81.564C82.1014 67.4629 82.6167 67.2494 82.9966 66.8695C83.3766 66.4895 83.59 65.9742 83.59 65.4369C83.59 64.8996 83.3766 64.3843 82.9966 64.0043C82.6167 63.6244 82.1014 63.4109 81.564 63.4109Z" fill="white"/>
<path d="M57.317 32.3469C56.8491 32.3474 56.3959 32.51 56.0345 32.8071C55.6731 33.1042 55.4258 33.5173 55.3347 33.9763C55.2437 34.4352 55.3145 34.9114 55.5352 35.324C55.7558 35.7366 56.1126 36.0599 56.5449 36.2389C56.9771 36.418 57.458 36.4417 57.9058 36.306C58.3535 36.1703 58.7404 35.8836 59.0005 35.4947C59.2607 35.1058 59.378 34.6388 59.3325 34.1732C59.287 33.7076 59.0815 33.2721 58.751 32.9409C58.3701 32.5615 57.8546 32.348 57.317 32.3469Z" fill="white"/>
<path d="M57.317 25.323C56.8491 25.3235 56.3959 25.4861 56.0345 25.7832C55.6731 26.0802 55.4258 26.4934 55.3347 26.9523C55.2437 27.4112 55.3145 27.8875 55.5352 28.3001C55.7558 28.7126 56.1126 29.0359 56.5449 29.215C56.9771 29.394 57.458 29.4177 57.9058 29.282C58.3535 29.1463 58.7404 28.8597 59.0005 28.4708C59.2607 28.0819 59.378 27.6149 59.3325 27.1493C59.287 26.6836 59.0815 26.2482 58.751 25.917C58.3697 25.5382 57.8545 25.3249 57.317 25.323Z" fill="white"/>
</g>
<defs>
<clipPath id="clip0">
<rect width="100.873" height="103.739" fill="white"/>
</clipPath>
</defs>
</svg>
