<svg xmlns="http://www.w3.org/2000/svg" viewBox="0 0 100.873 103.739"><defs><style>.a{fill:#ffd72d;}.b{fill:#fff;}.c{fill:#ff5a45;}</style></defs><path class="a" d="M40,308.961H52.97v8.1H40Zm0,0" transform="translate(-31.898 -246.361)"/><path class="b" d="M33.887,134.356H10V106.2A16.207,16.207,0,0,1,26.207,89.988h56.3A16.207,16.207,0,0,1,98.716,106.2v51.066H72.987V128.5a15.615,15.615,0,0,0-15.615-15.615H49.5A15.615,15.615,0,0,0,33.887,128.5Zm0,0" transform="translate(-7.974 -71.755)"/><path class="b" d="M57.006,89.988v21.764a4.052,4.052,0,1,1-8.1,0V92.287Zm0,0" transform="translate(-38.994 -71.755)"/><path class="b" d="M97.618,422.012H18a8,8,0,0,0-8,8v8.2h95.622v-8.2A8,8,0,0,0,97.618,422.012Zm0,0" transform="translate(-7.974 -336.505)"/><path class="c" d="M255.879,36h10.94v10.94h-10.94Zm0,0" transform="translate(-204.034 -28.703)"/><path class="a" d="M136.559,36H147.5v10.94h-10.94Zm0,0" transform="translate(-108.89 -28.703)"/><path class="a" d="M357.907,146.653a5.672,5.672,0,1,1-5.672-5.672A5.672,5.672,0,0,1,357.907,146.653Zm0,0" transform="translate(-276.343 -112.416)"/><path d="M92.768,83.981V58.766h4.052v1.2a2.026,2.026,0,1,0,4.052,0V29.393a2.026,2.026,0,1,0-4.052,0v2.954H92.647a18.259,18.259,0,0,0-18.112-16.14H64.811V7.293a2.027,2.027,0,0,0-2.026-2.026H59.341V2.026a2.026,2.026,0,0,0-4.052,0V5.267H51.845a2.026,2.026,0,0,0-2.026,2.026v8.914H40.635V7.293a2.026,2.026,0,0,0-2.026-2.026H35.165V2.026a2.026,2.026,0,1,0-4.052,0V5.267H27.669a2.026,2.026,0,0,0-2.025,2.026v8.914H18.233l-.176,0-.044,0c-.025,0-.049,0-.074,0A18.122,18.122,0,0,0,9,18.723a2.058,2.058,0,0,0-.258.154A18.239,18.239,0,0,0,0,34.44V62.6a2.025,2.025,0,0,0,2.026,2.025H6.08V70.7A2.026,2.026,0,0,0,8.105,72.73h4.458v5.065a2.026,2.026,0,1,0,4.052,0V72.73h4.457A2.026,2.026,0,0,0,23.1,70.7V64.626h2.816A2.025,2.025,0,0,0,27.939,62.6V56.74a13.6,13.6,0,0,1,13.59-13.589H49.4A13.6,13.6,0,0,1,62.987,56.74V83.48H51.845a2.026,2.026,0,1,0,0,4.052h37.8a5.985,5.985,0,0,1,5.979,5.979v6.177H4.052V93.511a5.986,5.986,0,0,1,5.98-5.979h24.4a2.026,2.026,0,1,0,0-4.052h-24.4A10.042,10.042,0,0,0,0,93.511v8.2a2.026,2.026,0,0,0,2.026,2.026H97.648a2.026,2.026,0,0,0,2.026-2.026v-8.2A10.047,10.047,0,0,0,92.768,83.981Zm4.052-29.266H92.768V36.4h4.052ZM53.87,9.319h6.888v6.888H53.87Zm-24.175,0h6.888v6.888H29.7ZM11.935,21.739a14.055,14.055,0,0,1,4.052-1.3V40a2.026,2.026,0,1,1-4.052,0Zm7.111,46.939H10.132V64.626h8.914Zm47.994,14.8V56.74A17.661,17.661,0,0,0,49.4,39.1h-7.87A17.661,17.661,0,0,0,23.887,56.74v3.834H4.052V34.44a14.126,14.126,0,0,1,3.831-9.68V40a6.078,6.078,0,1,0,12.155,0V20.259h54.5A14.2,14.2,0,0,1,88.716,34.44V83.48Zm0,0"/><path d="M209.388,415.474a2.025,2.025,0,1,0-1.432.594A2.042,2.042,0,0,0,209.388,415.474Zm0,0" transform="translate(-164.205 -328.535)"/><path d="M481.3,321.13a2.021,2.021,0,1,0,.6,1.435A2.034,2.034,0,0,0,481.3,321.13Zm0,0" transform="translate(-381.025 -255.593)"/><path d="M344.264,130.984a7.7,7.7,0,1,0,7.7,7.7A7.706,7.706,0,0,0,344.264,130.984Zm0,11.345a3.647,3.647,0,1,1,3.647-3.647A3.651,3.651,0,0,1,344.264,142.329Zm0,0" transform="translate(-268.373 -104.445)"/><path d="M372.26,270.043h-5.672a2.026,2.026,0,0,0,0,4.052h5.672a2.026,2.026,0,1,0,0-4.052Zm0,0" transform="translate(-290.696 -215.328)"/><path d="M372.26,312.961h-5.672a2.026,2.026,0,0,0,0,4.052h5.672a2.026,2.026,0,1,0,0-4.052Zm0,0" transform="translate(-290.696 -249.55)"/><path d="M274.9,159.648a2.023,2.023,0,1,0,1.434.594A2.038,2.038,0,0,0,274.9,159.648Zm0,0" transform="translate(-217.583 -127.301)"/><path d="M274.9,124.984a2.023,2.023,0,1,0,1.434.594A2.045,2.045,0,0,0,274.9,124.984Zm0,0" transform="translate(-217.583 -99.661)"/></svg>