<svg xmlns="http://www.w3.org/2000/svg" viewBox="0 0 172.74 25.73"><defs><style>.cls-1{fill:#fff;}.cls-2{fill:#ffd72d;}</style></defs><title>que-uniforme</title><g id="Layer_2" data-name="Layer 2"><g id="Layer_1-2" data-name="Layer 1"><path class="cls-1" d="M70.85.94a1.09,1.09,0,0,0-1,1v10.3c0,5-2.24,8.39-6.79,8.39-5.49,0-8.34-2.85-8.34-8.39V2a1.09,1.09,0,0,0-1-1V.3H60V.94a1.09,1.09,0,0,0-1,1v10.3C59,17,60.48,20,63,20c3.43,0,5.57-3.05,5.57-7.75V2a1.09,1.09,0,0,0-1-1V.3h3.25Z"/><path class="cls-1" d="M85.49,19a1.09,1.09,0,0,0,1,1v.64H81.68V11.06a1.91,1.91,0,0,0-2.06-2.19,3.12,3.12,0,0,0-2.42,1.68V19a1.09,1.09,0,0,0,1,1v.64H73.39V9.33a1.09,1.09,0,0,0-1-1V7.68h4.83V9.33a5.65,5.65,0,0,1,4.14-2c2,0,4.14,1,4.14,3.74Z"/><path class="cls-1" d="M92.36,19a1.09,1.09,0,0,0,1,1v.64H88.55V9.33a1.09,1.09,0,0,0-1-1V7.68h4.83ZM88,3.33a2,2,0,1,1,2,2A2,2,0,0,1,88,3.33Z"/><path class="cls-1" d="M102.71,7.68v.64h-2.47a1.09,1.09,0,0,0-1,1V19a1.09,1.09,0,0,0,1,1v.64H95.41V9.33a1.09,1.09,0,0,0-1-1V7.68h1V5.9C95.41,3.15,97,0,100.83,0a4.16,4.16,0,0,1,3.08,1.32L102.33,3.2S102.2.63,100.83.63s-1.6,3-1.6,5.26V7.68Z"/><path class="cls-1" d="M117.71,14.18a7,7,0,0,1-13.93,0,7,7,0,0,1,13.93,0Zm-4.07,0c0-3.51-1.3-6.25-2.9-6.25s-2.9,2.75-2.9,6.25,1.3,6.23,2.9,6.23S113.64,17.69,113.64,14.18Z"/><path class="cls-1" d="M123.82,9.35a5.38,5.38,0,0,1,5.29-1.93V12h-1.19c0-3.91-2.75-3.66-4.09-1.45V19a1.09,1.09,0,0,0,1,1v.64H120V9.33a1.09,1.09,0,0,0-1-1V7.68h4.83Z"/><path class="cls-1" d="M150.77,19a1.09,1.09,0,0,0,1,1v.64H147V11.06a1.91,1.91,0,0,0-2.06-2.19,2.86,2.86,0,0,0-2,1.12,4.73,4.73,0,0,1,.13,1.07V19a1.09,1.09,0,0,0,1,1v.64h-4.83V11.06a1.91,1.91,0,0,0-2.06-2.19,2.71,2.71,0,0,0-1.91,1V19a1.09,1.09,0,0,0,1,1v.64h-4.83V9.33a1.09,1.09,0,0,0-1-1V7.68h4.83V8.79a5.51,5.51,0,0,1,3.63-1.47,4,4,0,0,1,3.74,1.91,5.52,5.52,0,0,1,4-1.91c2,0,4.14,1,4.14,3.74Z"/><path class="cls-1" d="M166.46,14.69a4.39,4.39,0,0,1,.18,1.32c0,3.15-2.95,5-6.61,5a6.76,6.76,0,0,1-7-6.84c0-4.09,2.95-6.84,7.5-6.84,2.9,0,5.75,1.45,5.75,4.22,0,5.26-9.35,2.16-8.9,5.69.38,1.83,1.22,2.9,2.62,3.15,2.06.25,3.33-2.34,2.82-4.4Zm-10.07-2.75v0Zm.74,2.21c0,.53,0,1,.05,1.5.89-1.45,5.62-2.14,5.62-5,0-1.42-.76-2.75-2.26-2.75C158.37,7.93,157.13,10.4,157.13,14.16Z"/><path class="cls-1" d="M168.67,3.18a2,2,0,1,1,4.07,0l0,.3L172,14a1.25,1.25,0,0,1-2.49,0l-.76-10.5Zm4.07,15.43a2,2,0,1,1-2-2A2,2,0,0,1,172.74,18.61Z"/><path class="cls-2" d="M21.15,21.28c0,1.8-1.35,4.45-3.74,4.45-3.69,0-4.8-5.08-7.73-5.08C3.53,20.64,0,16.22,0,10.32S3.53,0,9.69,0s9.69,4.42,9.69,10.32c0,5.14-2.67,9.15-7.42,10.09,2.19.86,3.56,2.67,5.72,2.67,1.52,0,2.87-1,2.87-1.8ZM9.69,20c2.44,0,5.11-4.32,5.11-9.69S12.13.63,9.69.63,4.58,5,4.58,10.32,7.25,20,9.69,20Z"/><path class="cls-2" d="M35,19a1.09,1.09,0,0,0,1,1v.64H31.22V19a5.65,5.65,0,0,1-4.14,2c-2,0-4.14-1-4.14-3.74V9.33a1.09,1.09,0,0,0-1-1V7.68h4.83v9.58a1.91,1.91,0,0,0,2.06,2.19,3.13,3.13,0,0,0,2.42-1.68V9.33a1.09,1.09,0,0,0-1-1V7.68H35Z"/><path class="cls-2" d="M50.73,14.69A4.42,4.42,0,0,1,50.9,16c0,3.15-2.95,5-6.61,5a6.76,6.76,0,0,1-7-6.84c0-4.09,2.95-6.84,7.5-6.84,2.9,0,5.75,1.45,5.75,4.22,0,5.26-9.35,2.16-8.9,5.69.38,1.83,1.22,2.9,2.62,3.15,2.06.25,3.33-2.34,2.82-4.4ZM40.66,11.95v0Zm.74,2.21c0,.53,0,1,.05,1.5.89-1.45,5.62-2.14,5.62-5,0-1.42-.76-2.75-2.26-2.75C42.64,7.93,41.4,10.4,41.4,14.16Z"/></g></g></svg>