<svg xmlns="http://www.w3.org/2000/svg" viewBox="0 0 17.205 17.205"><defs><style>.a{fill:#ffd72d;}</style></defs><path class="a" d="M17.205,8.381A8.46,8.46,0,0,1,4.676,15.719L0,17.205l1.525-4.5A8.293,8.293,0,0,1,.313,8.381a8.447,8.447,0,0,1,16.893,0ZM8.759,1.335a7.082,7.082,0,0,0-7.1,7.046,6.972,6.972,0,0,0,1.353,4.131l-.887,2.617,2.729-.867A7.108,7.108,0,0,0,15.86,8.381,7.082,7.082,0,0,0,8.759,1.335Zm4.265,8.976c-.052-.085-.19-.137-.4-.24s-1.225-.6-1.415-.668-.328-.1-.466.1-.535.668-.656.805-.241.155-.449.052A5.667,5.667,0,0,1,7.977,9.344,6.193,6.193,0,0,1,6.826,7.921c-.121-.206-.013-.317.091-.419s.207-.24.311-.36A1.377,1.377,0,0,0,7.434,6.8a.374.374,0,0,0-.017-.36c-.052-.1-.466-1.114-.638-1.525s-.345-.343-.466-.343-.259-.017-.4-.017a.764.764,0,0,0-.552.257,2.3,2.3,0,0,0-.724,1.713A3.975,3.975,0,0,0,5.484,8.65a8.463,8.463,0,0,0,3.537,3.1c2.1.822,2.1.548,2.485.513a2.094,2.094,0,0,0,1.4-.976A1.713,1.713,0,0,0,13.024,10.311Z"/></svg>